<?xml version="1.0" encoding="iso-8859-1"?>
<!-- Uploaded to: SVG Repo, www.svgrepo.com, Generator: SVG Repo Mixer Tools -->
<svg version="1.1" id="Layer_1" xmlns="http://www.w3.org/2000/svg" xmlns:xlink="http://www.w3.org/1999/xlink" 
	 viewBox="0 0 512 512" xml:space="preserve">
<rect x="246.449" y="37.631" style="fill:#687F82;" width="33.921" height="46.642"/>
<rect x="221.008" y="7.95" style="fill:#E6EAEA;" width="84.803" height="33.921"/>
<rect x="221.008" y="7.95" style="fill:#9BAAAB;" width="42.402" height="33.921"/>
<rect x="371.1" y="86.809" transform="matrix(-0.7071 -0.7071 0.7071 -0.7071 596.6858 484.3758)" style="fill:#FF8C29;" width="55.122" height="63.602"/>
<circle style="fill:#E6EAEA;" cx="263.409" cy="296.282" r="207.768"/>
<path style="fill:#CDD4D5;" d="M55.637,296.282c0,114.747,93.021,207.768,207.768,207.768V88.513
	C148.658,88.513,55.637,181.534,55.637,296.282z"/>
<path style="fill:#4ACFD9;" d="M110.759,296.282c0-84.304,68.342-152.646,152.646-152.646s152.646,68.342,152.646,152.646
	s-68.342,152.646-152.646,152.646S110.759,380.586,110.759,296.282z M263.405,402.286c58.545,0,106.004-47.46,106.004-106.004
	S321.95,190.277,263.405,190.277s-106.004,47.459-106.004,106.004S204.86,402.286,263.405,402.286z"/>
<path style="fill:#0295AA;" d="M157.401,296.282c0-58.545,47.459-106.004,106.004-106.004v-46.642
	c-84.304,0-152.646,68.342-152.646,152.646s68.342,152.646,152.646,152.646v-46.642C204.86,402.286,157.401,354.826,157.401,296.282
	z"/>
<path style="fill:#FD6A33;" d="M263.405,190.277v-46.642c-84.304,0-152.646,68.342-152.646,152.646h46.642
	C157.401,237.737,204.86,190.277,263.405,190.277z"/>
<circle style="fill:#9BAAAB;" cx="263.409" cy="296.282" r="46.642"/>
<path style="fill:#687F82;" d="M216.763,296.282c0,25.76,20.882,46.642,46.642,46.642V249.64
	C237.645,249.64,216.763,270.522,216.763,296.282z"/>
<g>
	<path style="fill:#F0353D;" d="M40.822,189.75c-1.226,0-2.472-0.286-3.638-0.886c-3.902-2.013-5.434-6.809-3.422-10.711
		c12.203-23.66,28.058-45.325,47.124-64.39c27.254-27.254,59.226-47.596,95.027-60.462c4.131-1.483,8.686,0.661,10.17,4.794
		c1.485,4.131-0.661,8.685-4.794,10.17c-33.579,12.068-63.577,31.158-89.16,56.742c-17.903,17.902-32.786,38.235-44.236,60.434
		C46.483,188.179,43.702,189.75,40.822,189.75z"/>
	<path style="fill:#F0353D;" d="M42.263,121.905c-1.787,0-3.585-0.599-5.069-1.83c-3.38-2.802-3.85-7.814-1.048-11.194
		c24.549-29.623,54.078-53.962,87.765-72.344c3.856-2.103,8.685-0.684,10.787,3.172c2.103,3.854,0.684,8.683-3.172,10.787
		c-31.91,17.41-59.882,40.467-83.138,68.53C46.816,120.924,44.548,121.905,42.263,121.905z"/>
</g>
<path d="M419.781,147.724l26.48-26.48c3.105-3.106,3.105-8.139,0-11.244l-38.978-38.978c-1.49-1.49-3.513-2.328-5.621-2.328
	c-2.108,0-4.131,0.837-5.621,2.328l-33.598,33.599c-23.083-11.939-48.269-19.583-74.127-22.589v-32.21h17.491
	c4.391,0,7.95-3.559,7.95-7.95V7.95c0-4.392-3.56-7.95-7.95-7.95h-84.803c-4.391,0-7.95,3.559-7.95,7.95v33.921
	c0,4.392,3.56,7.95,7.95,7.95h17.491V82.01C131.239,94.401,47.687,185.761,47.687,296.282C47.687,415.229,144.458,512,263.405,512
	s215.718-96.771,215.718-215.718C479.124,240.417,458.103,187.981,419.781,147.724z M401.662,87.888l27.734,27.734l-20.981,20.981
	c-9.804-8.909-20.403-16.874-31.637-23.829L401.662,87.888z M254.395,49.822h18.021v26.501h-18.021V49.822z M228.954,15.901h68.903
	v18.021h-17.491h-33.921h-17.491V15.901z M263.405,496.099c-110.18,0-199.818-89.637-199.818-199.818S153.225,96.464,263.405,96.464
	c33.811,0,67.23,8.61,96.644,24.898c15.664,8.673,30.124,19.438,42.977,31.995c0.001,0.001,0.002,0.003,0.003,0.004
	c38.816,37.927,60.192,88.684,60.192,142.92C463.223,406.462,373.585,496.099,263.405,496.099z"/>
<path d="M263.405,241.689c-11.897,0-23.211,3.783-32.575,10.774l-30.895-30.896c17.708-15.091,39.949-23.34,63.47-23.34
	c4.391,0,7.95-3.559,7.95-7.95v-46.642c0-4.392-3.56-7.95-7.95-7.95c-9.536,0-19.095,0.844-28.41,2.507
	c-0.003,0.001-0.007,0.001-0.011,0.001c-2.628,0.47-5.265,1.009-7.84,1.605c0,0-0.002,0.001-0.003,0.001
	c-8.953,2.066-17.783,4.929-26.246,8.509c-0.001,0.001-0.003,0.001-0.004,0.002c-2.404,1.018-4.799,2.099-7.116,3.217
	c-0.003,0.002-0.006,0.004-0.011,0.005c-2.315,1.115-4.637,2.303-6.898,3.532c-0.005,0.003-0.011,0.004-0.016,0.007
	c-2.265,1.231-4.527,2.532-6.727,3.868c-0.001,0.001-0.002,0.001-0.003,0.002c-1.101,0.669-2.193,1.352-3.278,2.045
	c-0.002,0.001-0.004,0.003-0.006,0.004c-4.304,2.759-8.534,5.767-12.571,8.938c-0.004,0.003-0.008,0.006-0.014,0.01
	c-3.018,2.371-5.987,4.884-8.829,7.466c-2.836,2.577-5.611,5.287-8.251,8.056c-0.005,0.005-0.011,0.01-0.016,0.015
	c-1.767,1.853-3.51,3.772-5.183,5.703c-1.677,1.937-3.326,3.936-4.903,5.942c-0.001,0.002-0.003,0.003-0.004,0.005
	c-1.586,2.017-3.141,4.097-4.623,6.181c-0.001,0.001-0.001,0.002-0.002,0.003c-2.981,4.194-5.79,8.575-8.348,13.024
	c0,0.001-0.001,0.001-0.001,0.002c-2.58,4.486-4.966,9.146-7.093,13.85c0,0.001-0.001,0.002-0.001,0.004
	c-1.605,3.547-3.098,7.205-4.442,10.871c-0.001,0.004-0.002,0.008-0.004,0.013c-0.449,1.225-0.883,2.457-1.303,3.696
	c0,0.001-0.001,0.002-0.001,0.003c-1.263,3.733-2.401,7.561-3.383,11.375c-0.001,0.004-0.002,0.008-0.003,0.013
	c-0.33,1.278-0.642,2.564-0.941,3.855c-1.199,5.194-2.149,10.517-2.823,15.818c0,0.001,0,0.002,0,0.003
	c-0.511,4.021-0.876,8.12-1.08,12.183c-0.139,2.733-0.209,5.511-0.209,8.258c0,4.392,3.56,7.95,7.95,7.95h46.642
	c4.391,0,7.95-3.559,7.95-7.95c0-23.52,8.249-45.762,23.34-63.47l30.896,30.896c-6.991,9.363-10.773,20.677-10.773,32.574
	c0,30.102,24.49,54.592,54.592,54.592c30.102,0,54.592-24.49,54.592-54.592S293.507,241.689,263.405,241.689z M149.727,288.331
	h-30.794c0.19-3.5,0.499-7.025,0.939-10.486c0-0.001,0-0.001,0-0.002c0.607-4.777,1.463-9.569,2.542-14.246
	c0.269-1.165,0.552-2.325,0.849-3.479c0-0.002,0.001-0.003,0.002-0.005c0.883-3.435,1.908-6.881,3.045-10.243
	c0-0.001,0-0.002,0-0.002c0.378-1.118,0.77-2.228,1.175-3.333c0.001-0.002,0.002-0.003,0.002-0.005c1.21-3.303,2.555-6.598,4-9.792
	l0,0c0-0.001,0.001-0.001,0.001-0.002c1.914-4.236,4.064-8.432,6.387-12.472v-0.001c2.306-4.009,4.836-7.959,7.523-11.738
	c0-0.001,0.001-0.001,0.001-0.002c1.336-1.877,2.737-3.75,4.166-5.569c0.001-0.001,0.001-0.001,0.002-0.002
	c1.422-1.809,2.91-3.614,4.424-5.362c0.596-0.688,1.208-1.372,1.821-2.053c0.163-0.181,0.322-0.367,0.487-0.548
	c0.779-0.858,1.569-1.706,2.364-2.539c0.002-0.002,0.004-0.005,0.007-0.008c2.383-2.499,4.888-4.944,7.447-7.271
	c2.561-2.327,5.239-4.592,7.959-6.729c0.003-0.002,0.005-0.004,0.007-0.006c3.64-2.859,7.453-5.571,11.332-8.057
	c0.001-0.001,0.002-0.001,0.003-0.002c0.978-0.628,1.966-1.243,2.96-1.847l0.001-0.001c0.001-0.001,0.001-0.001,0.002-0.001
	c1.98-1.204,4.018-2.376,6.058-3.483c0.003-0.002,0.006-0.004,0.01-0.005c2.042-1.109,4.135-2.181,6.225-3.188
	c0.002-0.001,0.004-0.001,0.006-0.002c2.085-1.006,4.24-1.98,6.407-2.896c0.002-0.001,0.004-0.002,0.005-0.003
	c7.619-3.223,15.568-5.798,23.626-7.659c0,0,0.001,0,0.002,0c2.319-0.535,4.696-1.022,7.064-1.445c0.002,0,0.004-0.001,0.006-0.001
	c5.808-1.036,11.722-1.711,17.663-2.033v30.793c-24.81,1.698-48.064,11.331-66.81,27.673l-12.902-12.902
	c-3.105-3.104-8.139-3.104-11.243,0c-3.105,3.106-3.105,8.139,0,11.244L177.4,221.52
	C161.058,240.266,151.426,263.521,149.727,288.331z M263.405,334.973c-21.334,0-38.692-17.357-38.692-38.691
	c0-10.335,4.024-20.051,11.332-27.359c0.001-0.001,0.002-0.002,0.003-0.004c7.307-7.306,17.022-11.33,27.355-11.33
	c21.334,0,38.691,17.357,38.691,38.692C302.096,317.615,284.74,334.973,263.405,334.973z"/>
</svg>